<?xml version="1.0" encoding="UTF-8" standalone="no"?>
<!DOCTYPE svg PUBLIC "-//W3C//DTD SVG 1.1//EN"
 "http://www.w3.org/Graphics/SVG/1.1/DTD/svg11.dtd">
<!-- Generated by graphviz version 7.0.6 (20230106.0513)
 -->
<!-- Pages: 1 -->
<svg width="566pt" height="116pt"
 viewBox="0.00 0.00 565.73 116.00" xmlns="http://www.w3.org/2000/svg" xmlns:xlink="http://www.w3.org/1999/xlink">
<g id="graph0" class="graph" transform="scale(1 1) rotate(0) translate(4 112)">
<polygon fill="white" stroke="none" points="-4,4 -4,-112 561.73,-112 561.73,4 -4,4"/>
<!-- [root] root -->
<g id="node1" class="node">
<title>[root] root</title>
<ellipse fill="none" stroke="black" cx="252.54" cy="-90" rx="47.39" ry="18"/>
<text text-anchor="middle" x="252.54" y="-86.3" font-family="Times,serif" font-size="14.00">[root] root</text>
</g>
<!-- [root] output.zone (expand) -->
<g id="node2" class="node">
<title>[root] output.zone (expand)</title>
<ellipse fill="none" stroke="black" cx="108.54" cy="-18" rx="108.58" ry="18"/>
<text text-anchor="middle" x="108.54" y="-14.3" font-family="Times,serif" font-size="14.00">[root] output.zone (expand)</text>
</g>
<!-- [root] root&#45;&gt;[root] output.zone (expand) -->
<g id="edge1" class="edge">
<title>[root] root&#45;&gt;[root] output.zone (expand)</title>
<path fill="none" stroke="black" d="M224.09,-75.17C203.76,-65.29 176.01,-51.8 152.81,-40.52"/>
<polygon fill="black" stroke="black" points="154.39,-37.4 143.87,-36.17 151.33,-43.69 154.39,-37.4"/>
</g>
<!-- [root] output.zone_name_servers (expand) -->
<g id="node3" class="node">
<title>[root] output.zone_name_servers (expand)</title>
<ellipse fill="none" stroke="black" cx="396.54" cy="-18" rx="161.37" ry="18"/>
<text text-anchor="middle" x="396.54" y="-14.3" font-family="Times,serif" font-size="14.00">[root] output.zone_name_servers (expand)</text>
</g>
<!-- [root] root&#45;&gt;[root] output.zone_name_servers (expand) -->
<g id="edge2" class="edge">
<title>[root] root&#45;&gt;[root] output.zone_name_servers (expand)</title>
<path fill="none" stroke="black" d="M280.99,-75.17C301.03,-65.43 328.29,-52.18 351.3,-40.99"/>
<polygon fill="black" stroke="black" points="352.71,-44.2 360.17,-36.68 349.64,-37.9 352.71,-44.2"/>
</g>
</g>
</svg>
