<?xml version="1.0" encoding="UTF-8" standalone="no"?>
<!DOCTYPE svg PUBLIC "-//W3C//DTD SVG 1.1//EN"
 "http://www.w3.org/Graphics/SVG/1.1/DTD/svg11.dtd">
<!-- Generated by graphviz version 7.0.6 (20230106.0513)
 -->
<!-- Pages: 1 -->
<svg width="3689pt" height="476pt"
 viewBox="0.00 0.00 3689.19 476.00" xmlns="http://www.w3.org/2000/svg" xmlns:xlink="http://www.w3.org/1999/xlink">
<g id="graph0" class="graph" transform="scale(1 1) rotate(0) translate(4 472)">
<polygon fill="white" stroke="none" points="-4,4 -4,-472 3685.19,-472 3685.19,4 -4,4"/>
<!-- [root] aws_iam_policy.alb_controller_policy -->
<g id="node1" class="node">
<title>[root] aws_iam_policy.alb_controller_policy</title>
<polygon fill="none" stroke="black" points="1590.5,-252 1365.5,-252 1365.5,-216 1590.5,-216 1590.5,-252"/>
<text text-anchor="middle" x="1478" y="-230.3" font-family="Times,serif" font-size="14.00">aws_iam_policy.alb_controller_policy</text>
</g>
<!-- [root] aws_iam_role_policy_attachment.alb_policy_attachment -->
<g id="node5" class="node">
<title>[root] aws_iam_role_policy_attachment.alb_policy_attachment</title>
<polygon fill="none" stroke="black" points="2030,-180 1702,-180 1702,-144 2030,-144 2030,-180"/>
<text text-anchor="middle" x="1866" y="-158.3" font-family="Times,serif" font-size="14.00">aws_iam_role_policy_attachment.alb_policy_attachment</text>
</g>
<!-- [root] aws_iam_policy.alb_controller_policy&#45;&gt;[root] aws_iam_role_policy_attachment.alb_policy_attachment -->
<g id="edge1" class="edge">
<title>[root] aws_iam_policy.alb_controller_policy&#45;&gt;[root] aws_iam_role_policy_attachment.alb_policy_attachment</title>
<path fill="none" stroke="black" d="M1574.91,-215.52C1630.57,-205.48 1700.59,-192.84 1758.01,-182.48"/>
<polygon fill="black" stroke="black" points="1758.61,-185.93 1767.83,-180.71 1757.37,-179.04 1758.61,-185.93"/>
</g>
<!-- [root] aws_iam_policy.external_dns -->
<g id="node2" class="node">
<title>[root] aws_iam_policy.external_dns</title>
<polygon fill="none" stroke="black" points="1266,-252 1088,-252 1088,-216 1266,-216 1266,-252"/>
<text text-anchor="middle" x="1177" y="-230.3" font-family="Times,serif" font-size="14.00">aws_iam_policy.external_dns</text>
</g>
<!-- [root] aws_iam_role_policy_attachment.external_dns -->
<g id="node6" class="node">
<title>[root] aws_iam_role_policy_attachment.external_dns</title>
<polygon fill="none" stroke="black" points="1683.5,-180 1410.5,-180 1410.5,-144 1683.5,-144 1683.5,-180"/>
<text text-anchor="middle" x="1547" y="-158.3" font-family="Times,serif" font-size="14.00">aws_iam_role_policy_attachment.external_dns</text>
</g>
<!-- [root] aws_iam_policy.external_dns&#45;&gt;[root] aws_iam_role_policy_attachment.external_dns -->
<g id="edge2" class="edge">
<title>[root] aws_iam_policy.external_dns&#45;&gt;[root] aws_iam_role_policy_attachment.external_dns</title>
<path fill="none" stroke="black" d="M1266.1,-216.14C1319.62,-206.02 1387.95,-193.09 1443.82,-182.52"/>
<polygon fill="black" stroke="black" points="1444.15,-186.02 1453.33,-180.72 1442.85,-179.14 1444.15,-186.02"/>
</g>
<!-- [root] aws_iam_role.alb_controller_role -->
<g id="node3" class="node">
<title>[root] aws_iam_role.alb_controller_role</title>
<polygon fill="none" stroke="black" points="2208,-252 2008,-252 2008,-216 2208,-216 2208,-252"/>
<text text-anchor="middle" x="2108" y="-230.3" font-family="Times,serif" font-size="14.00">aws_iam_role.alb_controller_role</text>
</g>
<!-- [root] aws_iam_role.alb_controller_role&#45;&gt;[root] aws_iam_role_policy_attachment.alb_policy_attachment -->
<g id="edge3" class="edge">
<title>[root] aws_iam_role.alb_controller_role&#45;&gt;[root] aws_iam_role_policy_attachment.alb_policy_attachment</title>
<path fill="none" stroke="black" d="M2047.56,-215.52C2013.94,-205.79 1971.91,-193.64 1936.76,-183.47"/>
<polygon fill="black" stroke="black" points="1938.12,-180.22 1927.54,-180.8 1936.18,-186.94 1938.12,-180.22"/>
</g>
<!-- [root] kubernetes_service_account.aws_load_balancer_controller -->
<g id="node26" class="node">
<title>[root] kubernetes_service_account.aws_load_balancer_controller</title>
<polygon fill="none" stroke="black" points="3096.5,-180 2761.5,-180 2761.5,-144 3096.5,-144 3096.5,-180"/>
<text text-anchor="middle" x="2929" y="-158.3" font-family="Times,serif" font-size="14.00">kubernetes_service_account.aws_load_balancer_controller</text>
</g>
<!-- [root] aws_iam_role.alb_controller_role&#45;&gt;[root] kubernetes_service_account.aws_load_balancer_controller -->
<g id="edge4" class="edge">
<title>[root] aws_iam_role.alb_controller_role&#45;&gt;[root] kubernetes_service_account.aws_load_balancer_controller</title>
<path fill="none" stroke="black" d="M2208.45,-218.95C2217.42,-217.88 2226.37,-216.88 2235,-216 2460.46,-193.08 2520.53,-198.82 2749.9,-180.16"/>
<polygon fill="black" stroke="black" points="2750.12,-183.65 2759.8,-179.34 2749.55,-176.67 2750.12,-183.65"/>
</g>
<!-- [root] aws_iam_role.external_dns -->
<g id="node4" class="node">
<title>[root] aws_iam_role.external_dns</title>
<polygon fill="none" stroke="black" points="1820,-252 1654,-252 1654,-216 1820,-216 1820,-252"/>
<text text-anchor="middle" x="1737" y="-230.3" font-family="Times,serif" font-size="14.00">aws_iam_role.external_dns</text>
</g>
<!-- [root] aws_iam_role.external_dns&#45;&gt;[root] aws_iam_role_policy_attachment.external_dns -->
<g id="edge5" class="edge">
<title>[root] aws_iam_role.external_dns&#45;&gt;[root] aws_iam_role_policy_attachment.external_dns</title>
<path fill="none" stroke="black" d="M1689.55,-215.52C1663.83,-206.04 1631.86,-194.26 1604.71,-184.26"/>
<polygon fill="black" stroke="black" points="1606.19,-181.08 1595.6,-180.9 1603.77,-187.65 1606.19,-181.08"/>
</g>
<!-- [root] kubernetes_service_account.external_dns -->
<g id="node27" class="node">
<title>[root] kubernetes_service_account.external_dns</title>
<polygon fill="none" stroke="black" points="2743,-180 2501,-180 2501,-144 2743,-144 2743,-180"/>
<text text-anchor="middle" x="2622" y="-158.3" font-family="Times,serif" font-size="14.00">kubernetes_service_account.external_dns</text>
</g>
<!-- [root] aws_iam_role.external_dns&#45;&gt;[root] kubernetes_service_account.external_dns -->
<g id="edge6" class="edge">
<title>[root] aws_iam_role.external_dns&#45;&gt;[root] kubernetes_service_account.external_dns</title>
<path fill="none" stroke="black" d="M1820.26,-226.41C1974.09,-214.25 2304.01,-188.15 2489.09,-173.51"/>
<polygon fill="black" stroke="black" points="2489.32,-177.01 2499.01,-172.73 2488.77,-170.03 2489.32,-177.01"/>
</g>
<!-- [root] provider[&quot;registry.terraform.io/hashicorp/aws&quot;] -->
<g id="node29" class="node">
<title>[root] provider[&quot;registry.terraform.io/hashicorp/aws&quot;]</title>
<polygon fill="none" stroke="black" points="998,-108 745.46,-90 998,-72 1250.54,-90 998,-108"/>
<text text-anchor="middle" x="998" y="-86.3" font-family="Times,serif" font-size="14.00">provider[&quot;registry.terraform.io/hashicorp/aws&quot;]</text>
</g>
<!-- [root] aws_iam_role_policy_attachment.alb_policy_attachment&#45;&gt;[root] provider[&quot;registry.terraform.io/hashicorp/aws&quot;] -->
<g id="edge7" class="edge">
<title>[root] aws_iam_role_policy_attachment.alb_policy_attachment&#45;&gt;[root] provider[&quot;registry.terraform.io/hashicorp/aws&quot;]</title>
<path fill="none" stroke="black" d="M1701.64,-144.76C1698.74,-144.5 1695.86,-144.25 1693,-144 1498.6,-127.04 1273.34,-110.42 1133.24,-100.43"/>
<polygon fill="black" stroke="black" points="1133.78,-96.96 1123.55,-99.75 1133.28,-103.95 1133.78,-96.96"/>
</g>
<!-- [root] aws_iam_role_policy_attachment.external_dns&#45;&gt;[root] provider[&quot;registry.terraform.io/hashicorp/aws&quot;] -->
<g id="edge8" class="edge">
<title>[root] aws_iam_role_policy_attachment.external_dns&#45;&gt;[root] provider[&quot;registry.terraform.io/hashicorp/aws&quot;]</title>
<path fill="none" stroke="black" d="M1410.23,-143.56C1313.03,-131.17 1184.72,-114.81 1097.23,-103.65"/>
<polygon fill="black" stroke="black" points="1097.83,-100.2 1087.47,-102.41 1096.95,-107.14 1097.83,-100.2"/>
</g>
<!-- [root] aws_route53_zone.internet_alb -->
<g id="node7" class="node">
<title>[root] aws_route53_zone.internet_alb</title>
<polygon fill="none" stroke="black" points="835,-324 649,-324 649,-288 835,-288 835,-324"/>
<text text-anchor="middle" x="742" y="-302.3" font-family="Times,serif" font-size="14.00">aws_route53_zone.internet_alb</text>
</g>
<!-- [root] aws_route53_zone.internet_alb&#45;&gt;[root] aws_iam_policy.external_dns -->
<g id="edge9" class="edge">
<title>[root] aws_route53_zone.internet_alb&#45;&gt;[root] aws_iam_policy.external_dns</title>
<path fill="none" stroke="black" d="M835.38,-289.39C838.28,-288.92 841.16,-288.45 844,-288 944.77,-271.88 972.82,-269.2 1076.28,-252.43"/>
<polygon fill="black" stroke="black" points="1076.75,-255.9 1086.06,-250.83 1075.63,-248.99 1076.75,-255.9"/>
</g>
<!-- [root] aws_security_group.internet_alb -->
<g id="node8" class="node">
<title>[root] aws_security_group.internet_alb</title>
<polygon fill="none" stroke="black" points="659,-252 465,-252 465,-216 659,-216 659,-252"/>
<text text-anchor="middle" x="562" y="-230.3" font-family="Times,serif" font-size="14.00">aws_security_group.internet_alb</text>
</g>
<!-- [root] aws_security_group_rule.allow_http_from_alb -->
<g id="node9" class="node">
<title>[root] aws_security_group_rule.allow_http_from_alb</title>
<polygon fill="none" stroke="black" points="1392,-180 1120,-180 1120,-144 1392,-144 1392,-180"/>
<text text-anchor="middle" x="1256" y="-158.3" font-family="Times,serif" font-size="14.00">aws_security_group_rule.allow_http_from_alb</text>
</g>
<!-- [root] aws_security_group.internet_alb&#45;&gt;[root] aws_security_group_rule.allow_http_from_alb -->
<g id="edge10" class="edge">
<title>[root] aws_security_group.internet_alb&#45;&gt;[root] aws_security_group_rule.allow_http_from_alb</title>
<path fill="none" stroke="black" d="M659.26,-223.66C799.4,-210.2 1047.32,-186.36 1108.6,-180.2"/>
<polygon fill="black" stroke="black" points="1108.69,-183.71 1118.28,-179.21 1107.97,-176.75 1108.69,-183.71"/>
</g>
<!-- [root] aws_security_group_rule.allow_http_to_additonal_eks -->
<g id="node10" class="node">
<title>[root] aws_security_group_rule.allow_http_to_additonal_eks</title>
<polygon fill="none" stroke="black" points="1102,-180 788,-180 788,-144 1102,-144 1102,-180"/>
<text text-anchor="middle" x="945" y="-158.3" font-family="Times,serif" font-size="14.00">aws_security_group_rule.allow_http_to_additonal_eks</text>
</g>
<!-- [root] aws_security_group.internet_alb&#45;&gt;[root] aws_security_group_rule.allow_http_to_additonal_eks -->
<g id="edge11" class="edge">
<title>[root] aws_security_group.internet_alb&#45;&gt;[root] aws_security_group_rule.allow_http_to_additonal_eks</title>
<path fill="none" stroke="black" d="M657.66,-215.52C712.6,-205.48 781.72,-192.84 838.4,-182.48"/>
<polygon fill="black" stroke="black" points="838.87,-185.96 848.08,-180.71 837.61,-179.07 838.87,-185.96"/>
</g>
<!-- [root] kubernetes_ingress_v1.ingress -->
<g id="node25" class="node">
<title>[root] kubernetes_ingress_v1.ingress</title>
<polygon fill="none" stroke="black" points="690,-108 508,-108 508,-72 690,-72 690,-108"/>
<text text-anchor="middle" x="599" y="-86.3" font-family="Times,serif" font-size="14.00">kubernetes_ingress_v1.ingress</text>
</g>
<!-- [root] aws_security_group.internet_alb&#45;&gt;[root] kubernetes_ingress_v1.ingress -->
<g id="edge12" class="edge">
<title>[root] aws_security_group.internet_alb&#45;&gt;[root] kubernetes_ingress_v1.ingress</title>
<path fill="none" stroke="black" d="M546.76,-215.5C532.8,-197.23 515.99,-167.95 528,-144 533.87,-132.3 543.67,-122.52 554.16,-114.68"/>
<polygon fill="black" stroke="black" points="555.95,-117.7 562.21,-109.15 551.99,-111.93 555.95,-117.7"/>
</g>
<!-- [root] aws_security_group_rule.allow_http_from_alb&#45;&gt;[root] provider[&quot;registry.terraform.io/hashicorp/aws&quot;] -->
<g id="edge13" class="edge">
<title>[root] aws_security_group_rule.allow_http_from_alb&#45;&gt;[root] provider[&quot;registry.terraform.io/hashicorp/aws&quot;]</title>
<path fill="none" stroke="black" d="M1191.56,-143.52C1151.18,-132.56 1099.42,-118.52 1059.59,-107.71"/>
<polygon fill="black" stroke="black" points="1060.72,-104.39 1050.15,-105.15 1058.89,-111.15 1060.72,-104.39"/>
</g>
<!-- [root] aws_security_group_rule.allow_http_to_additonal_eks&#45;&gt;[root] provider[&quot;registry.terraform.io/hashicorp/aws&quot;] -->
<g id="edge14" class="edge">
<title>[root] aws_security_group_rule.allow_http_to_additonal_eks&#45;&gt;[root] provider[&quot;registry.terraform.io/hashicorp/aws&quot;]</title>
<path fill="none" stroke="black" d="M958.1,-143.7C964.38,-135.4 972.02,-125.31 978.93,-116.19"/>
<polygon fill="black" stroke="black" points="981.62,-118.44 984.86,-108.35 976.04,-114.21 981.62,-118.44"/>
</g>
<!-- [root] data.aws_acm_certificate.alb_example -->
<g id="node11" class="node">
<title>[root] data.aws_acm_certificate.alb_example</title>
<polygon fill="none" stroke="black" points="228,-180 0,-180 0,-144 228,-144 228,-180"/>
<text text-anchor="middle" x="114" y="-158.3" font-family="Times,serif" font-size="14.00">data.aws_acm_certificate.alb_example</text>
</g>
<!-- [root] data.aws_acm_certificate.alb_example&#45;&gt;[root] kubernetes_ingress_v1.ingress -->
<g id="edge15" class="edge">
<title>[root] data.aws_acm_certificate.alb_example&#45;&gt;[root] kubernetes_ingress_v1.ingress</title>
<path fill="none" stroke="black" d="M228.32,-144.5C309.6,-132.77 417.84,-117.15 496.36,-105.81"/>
<polygon fill="black" stroke="black" points="496.82,-109.28 506.22,-104.39 495.82,-102.36 496.82,-109.28"/>
</g>
<!-- [root] data.aws_acm_certificate.alb_example&#45;&gt;[root] provider[&quot;registry.terraform.io/hashicorp/aws&quot;] -->
<g id="edge16" class="edge">
<title>[root] data.aws_acm_certificate.alb_example&#45;&gt;[root] provider[&quot;registry.terraform.io/hashicorp/aws&quot;]</title>
<path fill="none" stroke="black" d="M228.22,-144.95C231.17,-144.62 234.11,-144.3 237,-144 352.86,-131.97 668.81,-111.45 855.16,-99.79"/>
<polygon fill="black" stroke="black" points="855.15,-103.29 864.91,-99.18 854.71,-96.31 855.15,-103.29"/>
</g>
<!-- [root] data.aws_eks_cluster.alb_example -->
<g id="node12" class="node">
<title>[root] data.aws_eks_cluster.alb_example</title>
<polygon fill="none" stroke="black" points="2528,-324 2324,-324 2324,-288 2528,-288 2528,-324"/>
<text text-anchor="middle" x="2426" y="-302.3" font-family="Times,serif" font-size="14.00">data.aws_eks_cluster.alb_example</text>
</g>
<!-- [root] data.aws_eks_cluster.alb_example&#45;&gt;[root] aws_iam_role.alb_controller_role -->
<g id="edge17" class="edge">
<title>[root] data.aws_eks_cluster.alb_example&#45;&gt;[root] aws_iam_role.alb_controller_role</title>
<path fill="none" stroke="black" d="M2346.58,-287.52C2301.53,-277.6 2245,-265.16 2198.28,-254.87"/>
<polygon fill="black" stroke="black" points="2199.24,-251.5 2188.72,-252.77 2197.73,-258.34 2199.24,-251.5"/>
</g>
<!-- [root] data.aws_eks_cluster.alb_example&#45;&gt;[root] aws_iam_role.external_dns -->
<g id="edge18" class="edge">
<title>[root] data.aws_eks_cluster.alb_example&#45;&gt;[root] aws_iam_role.external_dns</title>
<path fill="none" stroke="black" d="M2323.52,-289.07C2320.65,-288.7 2317.81,-288.34 2315,-288 2145.12,-267.22 1946.23,-250.69 1831.61,-241.91"/>
<polygon fill="black" stroke="black" points="1832.19,-238.44 1821.95,-241.17 1831.66,-245.42 1832.19,-238.44"/>
</g>
<!-- [root] kubernetes_deployment_v1.nginx -->
<g id="node24" class="node">
<title>[root] kubernetes_deployment_v1.nginx</title>
<polygon fill="none" stroke="black" points="2444.5,-252 2243.5,-252 2243.5,-216 2444.5,-216 2444.5,-252"/>
<text text-anchor="middle" x="2344" y="-230.3" font-family="Times,serif" font-size="14.00">kubernetes_deployment_v1.nginx</text>
</g>
<!-- [root] data.aws_eks_cluster.alb_example&#45;&gt;[root] kubernetes_deployment_v1.nginx -->
<g id="edge19" class="edge">
<title>[root] data.aws_eks_cluster.alb_example&#45;&gt;[root] kubernetes_deployment_v1.nginx</title>
<path fill="none" stroke="black" d="M2405.73,-287.7C2395.87,-279.28 2383.85,-269.02 2373.04,-259.79"/>
<polygon fill="black" stroke="black" points="2375.35,-257.16 2365.47,-253.33 2370.81,-262.48 2375.35,-257.16"/>
</g>
<!-- [root] data.aws_eks_cluster_auth.alb_example -->
<g id="node13" class="node">
<title>[root] data.aws_eks_cluster_auth.alb_example</title>
<polygon fill="none" stroke="black" points="2781.5,-324 2546.5,-324 2546.5,-288 2781.5,-288 2781.5,-324"/>
<text text-anchor="middle" x="2664" y="-302.3" font-family="Times,serif" font-size="14.00">data.aws_eks_cluster_auth.alb_example</text>
</g>
<!-- [root] data.aws_eks_cluster_auth.alb_example&#45;&gt;[root] kubernetes_deployment_v1.nginx -->
<g id="edge20" class="edge">
<title>[root] data.aws_eks_cluster_auth.alb_example&#45;&gt;[root] kubernetes_deployment_v1.nginx</title>
<path fill="none" stroke="black" d="M2584.08,-287.52C2538.75,-277.6 2481.86,-265.16 2434.84,-254.87"/>
<polygon fill="black" stroke="black" points="2435.73,-251.48 2425.22,-252.77 2434.24,-258.32 2435.73,-251.48"/>
</g>
<!-- [root] data.aws_eks_cluster_auth.alb_example&#45;&gt;[root] kubernetes_service_account.aws_load_balancer_controller -->
<g id="edge21" class="edge">
<title>[root] data.aws_eks_cluster_auth.alb_example&#45;&gt;[root] kubernetes_service_account.aws_load_balancer_controller</title>
<path fill="none" stroke="black" d="M2696.49,-287.59C2744.31,-261.97 2833.65,-214.09 2886.58,-185.73"/>
<polygon fill="black" stroke="black" points="2888.16,-188.86 2895.32,-181.05 2884.85,-182.69 2888.16,-188.86"/>
</g>
<!-- [root] data.aws_eks_cluster_auth.alb_example&#45;&gt;[root] kubernetes_service_account.external_dns -->
<g id="edge22" class="edge">
<title>[root] data.aws_eks_cluster_auth.alb_example&#45;&gt;[root] kubernetes_service_account.external_dns</title>
<path fill="none" stroke="black" d="M2658.85,-287.59C2651.73,-263.5 2638.79,-219.75 2630.29,-191.03"/>
<polygon fill="black" stroke="black" points="2633.68,-190.16 2627.49,-181.56 2626.97,-192.14 2633.68,-190.16"/>
</g>
<!-- [root] data.aws_eks_cluster_auth.alb_example&#45;&gt;[root] provider[&quot;registry.terraform.io/hashicorp/aws&quot;] -->
<g id="edge23" class="edge">
<title>[root] data.aws_eks_cluster_auth.alb_example&#45;&gt;[root] provider[&quot;registry.terraform.io/hashicorp/aws&quot;]</title>
<path fill="none" stroke="black" d="M2640.18,-287.63C2590.65,-252.64 2471.65,-174.43 2358,-144 2250.82,-115.3 1568.75,-100.18 1213.12,-94.17"/>
<polygon fill="black" stroke="black" points="1213.22,-90.67 1203.17,-94 1213.11,-97.67 1213.22,-90.67"/>
</g>
<!-- [root] data.aws_iam_openid_connect_provider.alb_example -->
<g id="node14" class="node">
<title>[root] data.aws_iam_openid_connect_provider.alb_example</title>
<polygon fill="none" stroke="black" points="1891.5,-324 1582.5,-324 1582.5,-288 1891.5,-288 1891.5,-324"/>
<text text-anchor="middle" x="1737" y="-302.3" font-family="Times,serif" font-size="14.00">data.aws_iam_openid_connect_provider.alb_example</text>
</g>
<!-- [root] data.aws_iam_openid_connect_provider.alb_example&#45;&gt;[root] aws_iam_role.alb_controller_role -->
<g id="edge24" class="edge">
<title>[root] data.aws_iam_openid_connect_provider.alb_example&#45;&gt;[root] aws_iam_role.alb_controller_role</title>
<path fill="none" stroke="black" d="M1829.66,-287.52C1882.77,-277.5 1949.56,-264.89 2004.4,-254.55"/>
<polygon fill="black" stroke="black" points="2004.89,-258.02 2014.07,-252.72 2003.59,-251.14 2004.89,-258.02"/>
</g>
<!-- [root] data.aws_iam_openid_connect_provider.alb_example&#45;&gt;[root] aws_iam_role.external_dns -->
<g id="edge25" class="edge">
<title>[root] data.aws_iam_openid_connect_provider.alb_example&#45;&gt;[root] aws_iam_role.external_dns</title>
<path fill="none" stroke="black" d="M1737,-287.7C1737,-280.41 1737,-271.73 1737,-263.54"/>
<polygon fill="black" stroke="black" points="1740.5,-263.62 1737,-253.62 1733.5,-263.62 1740.5,-263.62"/>
</g>
<!-- [root] data.aws_iam_policy_document.external_dns -->
<g id="node15" class="node">
<title>[root] data.aws_iam_policy_document.external_dns</title>
<polygon fill="none" stroke="black" points="1119,-324 853,-324 853,-288 1119,-288 1119,-324"/>
<text text-anchor="middle" x="986" y="-302.3" font-family="Times,serif" font-size="14.00">data.aws_iam_policy_document.external_dns</text>
</g>
<!-- [root] data.aws_iam_policy_document.external_dns&#45;&gt;[root] aws_iam_policy.external_dns -->
<g id="edge26" class="edge">
<title>[root] data.aws_iam_policy_document.external_dns&#45;&gt;[root] aws_iam_policy.external_dns</title>
<path fill="none" stroke="black" d="M1033.7,-287.52C1059.55,-278.04 1091.7,-266.26 1118.99,-256.26"/>
<polygon fill="black" stroke="black" points="1119.97,-259.63 1128.15,-252.9 1117.56,-253.06 1119.97,-259.63"/>
</g>
<!-- [root] data.aws_iam_policy_document.irsa_alb_controller_trust_policy_doc -->
<g id="node16" class="node">
<title>[root] data.aws_iam_policy_document.irsa_alb_controller_trust_policy_doc</title>
<polygon fill="none" stroke="black" points="2306,-324 1910,-324 1910,-288 2306,-288 2306,-324"/>
<text text-anchor="middle" x="2108" y="-302.3" font-family="Times,serif" font-size="14.00">data.aws_iam_policy_document.irsa_alb_controller_trust_policy_doc</text>
</g>
<!-- [root] data.aws_iam_policy_document.irsa_alb_controller_trust_policy_doc&#45;&gt;[root] aws_iam_role.alb_controller_role -->
<g id="edge27" class="edge">
<title>[root] data.aws_iam_policy_document.irsa_alb_controller_trust_policy_doc&#45;&gt;[root] aws_iam_role.alb_controller_role</title>
<path fill="none" stroke="black" d="M2108,-287.7C2108,-280.41 2108,-271.73 2108,-263.54"/>
<polygon fill="black" stroke="black" points="2111.5,-263.62 2108,-253.62 2104.5,-263.62 2111.5,-263.62"/>
</g>
<!-- [root] data.aws_iam_policy_document.irsa_external_dns_trust_policy_doc -->
<g id="node17" class="node">
<title>[root] data.aws_iam_policy_document.irsa_external_dns_trust_policy_doc</title>
<polygon fill="none" stroke="black" points="1564.5,-324 1175.5,-324 1175.5,-288 1564.5,-288 1564.5,-324"/>
<text text-anchor="middle" x="1370" y="-302.3" font-family="Times,serif" font-size="14.00">data.aws_iam_policy_document.irsa_external_dns_trust_policy_doc</text>
</g>
<!-- [root] data.aws_iam_policy_document.irsa_external_dns_trust_policy_doc&#45;&gt;[root] aws_iam_role.external_dns -->
<g id="edge28" class="edge">
<title>[root] data.aws_iam_policy_document.irsa_external_dns_trust_policy_doc&#45;&gt;[root] aws_iam_role.external_dns</title>
<path fill="none" stroke="black" d="M1461.66,-287.52C1516.78,-277 1586.8,-263.65 1642.43,-253.04"/>
<polygon fill="black" stroke="black" points="1643.06,-256.48 1652.22,-251.17 1641.74,-249.61 1643.06,-256.48"/>
</g>
<!-- [root] data.aws_security_group.additional_eks_security_group -->
<g id="node18" class="node">
<title>[root] data.aws_security_group.additional_eks_security_group</title>
<polygon fill="none" stroke="black" points="1070,-252 748,-252 748,-216 1070,-216 1070,-252"/>
<text text-anchor="middle" x="909" y="-230.3" font-family="Times,serif" font-size="14.00">data.aws_security_group.additional_eks_security_group</text>
</g>
<!-- [root] data.aws_security_group.additional_eks_security_group&#45;&gt;[root] aws_security_group_rule.allow_http_from_alb -->
<g id="edge29" class="edge">
<title>[root] data.aws_security_group.additional_eks_security_group&#45;&gt;[root] aws_security_group_rule.allow_http_from_alb</title>
<path fill="none" stroke="black" d="M995.67,-215.52C1045.13,-205.54 1107.29,-193 1158.46,-182.68"/>
<polygon fill="black" stroke="black" points="1158.94,-186.15 1168.05,-180.74 1157.56,-179.29 1158.94,-186.15"/>
</g>
<!-- [root] data.aws_security_group.additional_eks_security_group&#45;&gt;[root] aws_security_group_rule.allow_http_to_additonal_eks -->
<g id="edge30" class="edge">
<title>[root] data.aws_security_group.additional_eks_security_group&#45;&gt;[root] aws_security_group_rule.allow_http_to_additonal_eks</title>
<path fill="none" stroke="black" d="M917.9,-215.7C921.87,-207.98 926.63,-198.71 931.06,-190.11"/>
<polygon fill="black" stroke="black" points="934.05,-191.94 935.51,-181.45 927.83,-188.74 934.05,-191.94"/>
</g>
<!-- [root] data.aws_subnet.alb_example_public_1 -->
<g id="node19" class="node">
<title>[root] data.aws_subnet.alb_example_public_1</title>
<polygon fill="none" stroke="black" points="479.5,-180 246.5,-180 246.5,-144 479.5,-144 479.5,-180"/>
<text text-anchor="middle" x="363" y="-158.3" font-family="Times,serif" font-size="14.00">data.aws_subnet.alb_example_public_1</text>
</g>
<!-- [root] data.aws_subnet.alb_example_public_1&#45;&gt;[root] kubernetes_ingress_v1.ingress -->
<g id="edge31" class="edge">
<title>[root] data.aws_subnet.alb_example_public_1&#45;&gt;[root] kubernetes_ingress_v1.ingress</title>
<path fill="none" stroke="black" d="M421.94,-143.52C454.59,-133.83 495.36,-121.74 529.55,-111.6"/>
<polygon fill="black" stroke="black" points="530.36,-115.01 538.95,-108.81 528.37,-108.3 530.36,-115.01"/>
</g>
<!-- [root] data.aws_subnet.alb_example_public_1&#45;&gt;[root] provider[&quot;registry.terraform.io/hashicorp/aws&quot;] -->
<g id="edge32" class="edge">
<title>[root] data.aws_subnet.alb_example_public_1&#45;&gt;[root] provider[&quot;registry.terraform.io/hashicorp/aws&quot;]</title>
<path fill="none" stroke="black" d="M479.84,-148.12C597.18,-135.18 776.49,-115.42 890.43,-102.86"/>
<polygon fill="black" stroke="black" points="890.53,-106.37 900.09,-101.79 889.77,-99.41 890.53,-106.37"/>
</g>
<!-- [root] data.aws_subnet.alb_example_public_2 -->
<g id="node20" class="node">
<title>[root] data.aws_subnet.alb_example_public_2</title>
<polygon fill="none" stroke="black" points="769.5,-180 536.5,-180 536.5,-144 769.5,-144 769.5,-180"/>
<text text-anchor="middle" x="653" y="-158.3" font-family="Times,serif" font-size="14.00">data.aws_subnet.alb_example_public_2</text>
</g>
<!-- [root] data.aws_subnet.alb_example_public_2&#45;&gt;[root] kubernetes_ingress_v1.ingress -->
<g id="edge33" class="edge">
<title>[root] data.aws_subnet.alb_example_public_2&#45;&gt;[root] kubernetes_ingress_v1.ingress</title>
<path fill="none" stroke="black" d="M639.65,-143.7C633.44,-135.64 625.92,-125.89 619.04,-116.98"/>
<polygon fill="black" stroke="black" points="622,-115.08 613.12,-109.3 616.46,-119.36 622,-115.08"/>
</g>
<!-- [root] data.aws_subnet.alb_example_public_2&#45;&gt;[root] provider[&quot;registry.terraform.io/hashicorp/aws&quot;] -->
<g id="edge34" class="edge">
<title>[root] data.aws_subnet.alb_example_public_2&#45;&gt;[root] provider[&quot;registry.terraform.io/hashicorp/aws&quot;]</title>
<path fill="none" stroke="black" d="M739.17,-143.52C795.72,-132.04 868.95,-117.18 923.08,-106.2"/>
<polygon fill="black" stroke="black" points="923.74,-109.64 932.84,-104.22 922.35,-102.78 923.74,-109.64"/>
</g>
<!-- [root] data.aws_vpc.alb_example -->
<g id="node21" class="node">
<title>[root] data.aws_vpc.alb_example</title>
<polygon fill="none" stroke="black" points="593,-324 429,-324 429,-288 593,-288 593,-324"/>
<text text-anchor="middle" x="511" y="-302.3" font-family="Times,serif" font-size="14.00">data.aws_vpc.alb_example</text>
</g>
<!-- [root] data.aws_vpc.alb_example&#45;&gt;[root] aws_security_group.internet_alb -->
<g id="edge35" class="edge">
<title>[root] data.aws_vpc.alb_example&#45;&gt;[root] aws_security_group.internet_alb</title>
<path fill="none" stroke="black" d="M523.61,-287.7C529.41,-279.73 536.43,-270.1 542.86,-261.26"/>
<polygon fill="black" stroke="black" points="545.59,-263.47 548.65,-253.33 539.93,-259.35 545.59,-263.47"/>
</g>
<!-- [root] helm_release.eks_alb -->
<g id="node22" class="node">
<title>[root] helm_release.eks_alb</title>
<polygon fill="none" stroke="black" points="3372,-108 3238,-108 3238,-72 3372,-72 3372,-108"/>
<text text-anchor="middle" x="3305" y="-86.3" font-family="Times,serif" font-size="14.00">helm_release.eks_alb</text>
</g>
<!-- [root] provider[&quot;registry.terraform.io/hashicorp/helm&quot;] -->
<g id="node30" class="node">
<title>[root] provider[&quot;registry.terraform.io/hashicorp/helm&quot;]</title>
<polygon fill="none" stroke="black" points="3265,-36 3006.93,-18 3265,0 3523.07,-18 3265,-36"/>
<text text-anchor="middle" x="3265" y="-14.3" font-family="Times,serif" font-size="14.00">provider[&quot;registry.terraform.io/hashicorp/helm&quot;]</text>
</g>
<!-- [root] helm_release.eks_alb&#45;&gt;[root] provider[&quot;registry.terraform.io/hashicorp/helm&quot;] -->
<g id="edge36" class="edge">
<title>[root] helm_release.eks_alb&#45;&gt;[root] provider[&quot;registry.terraform.io/hashicorp/helm&quot;]</title>
<path fill="none" stroke="black" d="M3295.11,-71.7C3290.59,-63.78 3285.13,-54.23 3280.11,-45.44"/>
<polygon fill="black" stroke="black" points="3283.25,-43.88 3275.25,-36.94 3277.17,-47.36 3283.25,-43.88"/>
</g>
<!-- [root] helm_release.external_dns -->
<g id="node23" class="node">
<title>[root] helm_release.external_dns</title>
<polygon fill="none" stroke="black" points="3219.5,-108 3058.5,-108 3058.5,-72 3219.5,-72 3219.5,-108"/>
<text text-anchor="middle" x="3139" y="-86.3" font-family="Times,serif" font-size="14.00">helm_release.external_dns</text>
</g>
<!-- [root] helm_release.external_dns&#45;&gt;[root] provider[&quot;registry.terraform.io/hashicorp/helm&quot;] -->
<g id="edge37" class="edge">
<title>[root] helm_release.external_dns&#45;&gt;[root] provider[&quot;registry.terraform.io/hashicorp/helm&quot;]</title>
<path fill="none" stroke="black" d="M3170.47,-71.52C3187.73,-61.93 3209.25,-49.97 3227.4,-39.89"/>
<polygon fill="black" stroke="black" points="3228.99,-43.01 3236.03,-35.09 3225.59,-36.89 3228.99,-43.01"/>
</g>
<!-- [root] kubernetes_service_v1.nginx -->
<g id="node28" class="node">
<title>[root] kubernetes_service_v1.nginx</title>
<polygon fill="none" stroke="black" points="2348.5,-180 2173.5,-180 2173.5,-144 2348.5,-144 2348.5,-180"/>
<text text-anchor="middle" x="2261" y="-158.3" font-family="Times,serif" font-size="14.00">kubernetes_service_v1.nginx</text>
</g>
<!-- [root] kubernetes_deployment_v1.nginx&#45;&gt;[root] kubernetes_service_v1.nginx -->
<g id="edge38" class="edge">
<title>[root] kubernetes_deployment_v1.nginx&#45;&gt;[root] kubernetes_service_v1.nginx</title>
<path fill="none" stroke="black" d="M2323.48,-215.7C2313.41,-207.2 2301.09,-196.81 2290.07,-187.51"/>
<polygon fill="black" stroke="black" points="2292.63,-185.09 2282.73,-181.32 2288.11,-190.45 2292.63,-185.09"/>
</g>
<!-- [root] provider[&quot;registry.terraform.io/hashicorp/kubernetes&quot;] -->
<g id="node31" class="node">
<title>[root] provider[&quot;registry.terraform.io/hashicorp/kubernetes&quot;]</title>
<polygon fill="none" stroke="black" points="2622,-36 2335.45,-18 2622,0 2908.55,-18 2622,-36"/>
<text text-anchor="middle" x="2622" y="-14.3" font-family="Times,serif" font-size="14.00">provider[&quot;registry.terraform.io/hashicorp/kubernetes&quot;]</text>
</g>
<!-- [root] kubernetes_ingress_v1.ingress&#45;&gt;[root] provider[&quot;registry.terraform.io/hashicorp/kubernetes&quot;] -->
<g id="edge39" class="edge">
<title>[root] kubernetes_ingress_v1.ingress&#45;&gt;[root] provider[&quot;registry.terraform.io/hashicorp/kubernetes&quot;]</title>
<path fill="none" stroke="black" d="M690.26,-76.45C705.51,-74.7 721.18,-73.12 736,-72 1296.67,-29.43 1953.43,-20.12 2325.33,-18.61"/>
<polygon fill="black" stroke="black" points="2325.29,-22.11 2335.28,-18.57 2325.27,-15.11 2325.29,-22.11"/>
</g>
<!-- [root] kubernetes_service_account.aws_load_balancer_controller&#45;&gt;[root] helm_release.eks_alb -->
<g id="edge40" class="edge">
<title>[root] kubernetes_service_account.aws_load_balancer_controller&#45;&gt;[root] helm_release.eks_alb</title>
<path fill="none" stroke="black" d="M3034.74,-143.52C3089.37,-134.2 3157.38,-122.16 3226.75,-108.4"/>
<polygon fill="black" stroke="black" points="3227.29,-111.87 3236.41,-106.48 3225.92,-105 3227.29,-111.87"/>
</g>
<!-- [root] kubernetes_service_account.aws_load_balancer_controller&#45;&gt;[root] provider[&quot;registry.terraform.io/hashicorp/kubernetes&quot;] -->
<g id="edge41" class="edge">
<title>[root] kubernetes_service_account.aws_load_balancer_controller&#45;&gt;[root] provider[&quot;registry.terraform.io/hashicorp/kubernetes&quot;]</title>
<path fill="none" stroke="black" d="M2891.36,-143.59C2834.26,-117.18 2726.04,-67.12 2665.6,-39.17"/>
<polygon fill="black" stroke="black" points="2667.17,-36.04 2656.63,-35.02 2664.24,-42.39 2667.17,-36.04"/>
</g>
<!-- [root] kubernetes_service_account.external_dns&#45;&gt;[root] helm_release.external_dns -->
<g id="edge42" class="edge">
<title>[root] kubernetes_service_account.external_dns&#45;&gt;[root] helm_release.external_dns</title>
<path fill="none" stroke="black" d="M2743.21,-144.59C2836.09,-132.01 2962.28,-114.93 3046.98,-103.46"/>
<polygon fill="black" stroke="black" points="3047.44,-106.93 3056.88,-102.12 3046.5,-99.99 3047.44,-106.93"/>
</g>
<!-- [root] kubernetes_service_account.external_dns&#45;&gt;[root] provider[&quot;registry.terraform.io/hashicorp/kubernetes&quot;] -->
<g id="edge43" class="edge">
<title>[root] kubernetes_service_account.external_dns&#45;&gt;[root] provider[&quot;registry.terraform.io/hashicorp/kubernetes&quot;]</title>
<path fill="none" stroke="black" d="M2622,-143.59C2622,-119.61 2622,-76.14 2622,-47.42"/>
<polygon fill="black" stroke="black" points="2625.5,-47.62 2622,-37.62 2618.5,-47.62 2625.5,-47.62"/>
</g>
<!-- [root] kubernetes_service_v1.nginx&#45;&gt;[root] kubernetes_ingress_v1.ingress -->
<g id="edge44" class="edge">
<title>[root] kubernetes_service_v1.nginx&#45;&gt;[root] kubernetes_ingress_v1.ingress</title>
<path fill="none" stroke="black" d="M2173.02,-153.27C2132.27,-149.95 2083.2,-146.3 2039,-144 1460.45,-113.87 1313.68,-151.72 736,-108 724.77,-107.15 713.05,-106.04 701.39,-104.79"/>
<polygon fill="black" stroke="black" points="702.09,-101.35 691.76,-103.73 701.32,-108.31 702.09,-101.35"/>
</g>
<!-- [root] local.aws_region (expand) -->
<g id="node33" class="node">
<title>[root] local.aws_region (expand)</title>
<ellipse fill="none" stroke="black" cx="998" cy="-18" rx="126.98" ry="18"/>
<text text-anchor="middle" x="998" y="-14.3" font-family="Times,serif" font-size="14.00">[root] local.aws_region (expand)</text>
</g>
<!-- [root] provider[&quot;registry.terraform.io/hashicorp/aws&quot;]&#45;&gt;[root] local.aws_region (expand) -->
<g id="edge58" class="edge">
<title>[root] provider[&quot;registry.terraform.io/hashicorp/aws&quot;]&#45;&gt;[root] local.aws_region (expand)</title>
<path fill="none" stroke="black" d="M998,-71.7C998,-64.41 998,-55.73 998,-47.54"/>
<polygon fill="black" stroke="black" points="1001.5,-47.62 998,-37.62 994.5,-47.62 1001.5,-47.62"/>
</g>
<!-- [root] provider[&quot;registry.terraform.io/hashicorp/aws&quot;] (close) -->
<g id="node32" class="node">
<title>[root] provider[&quot;registry.terraform.io/hashicorp/aws&quot;] (close)</title>
<ellipse fill="none" stroke="black" cx="1067" cy="-378" rx="227.46" ry="18"/>
<text text-anchor="middle" x="1067" y="-374.3" font-family="Times,serif" font-size="14.00">[root] provider[&quot;registry.terraform.io/hashicorp/aws&quot;] (close)</text>
</g>
<!-- [root] provider[&quot;registry.terraform.io/hashicorp/aws&quot;] (close)&#45;&gt;[root] aws_iam_policy.alb_controller_policy -->
<g id="edge45" class="edge">
<title>[root] provider[&quot;registry.terraform.io/hashicorp/aws&quot;] (close)&#45;&gt;[root] aws_iam_policy.alb_controller_policy</title>
<path fill="none" stroke="black" d="M1087.19,-359.73C1099.13,-349.44 1114.52,-336.07 1128,-324 1145.57,-308.26 1145.83,-298.41 1167,-288 1224.72,-259.61 1294.92,-246.12 1354.02,-239.82"/>
<polygon fill="black" stroke="black" points="1354.19,-243.32 1363.79,-238.84 1353.49,-236.36 1354.19,-243.32"/>
</g>
<!-- [root] provider[&quot;registry.terraform.io/hashicorp/aws&quot;] (close)&#45;&gt;[root] aws_route53_zone.internet_alb -->
<g id="edge46" class="edge">
<title>[root] provider[&quot;registry.terraform.io/hashicorp/aws&quot;] (close)&#45;&gt;[root] aws_route53_zone.internet_alb</title>
<path fill="none" stroke="black" d="M990.8,-360.59C943.97,-350.5 883.66,-337.51 834.15,-326.85"/>
<polygon fill="black" stroke="black" points="835.11,-323.47 824.59,-324.79 833.63,-330.32 835.11,-323.47"/>
</g>
<!-- [root] provider[&quot;registry.terraform.io/hashicorp/aws&quot;] (close)&#45;&gt;[root] data.aws_acm_certificate.alb_example -->
<g id="edge47" class="edge">
<title>[root] provider[&quot;registry.terraform.io/hashicorp/aws&quot;] (close)&#45;&gt;[root] data.aws_acm_certificate.alb_example</title>
<path fill="none" stroke="black" d="M853.74,-371.52C684.52,-365.15 462.66,-351.72 377,-324 283.84,-293.85 189.55,-224.6 143.3,-187.51"/>
<polygon fill="black" stroke="black" points="145.59,-184.86 135.61,-181.28 141.18,-190.3 145.59,-184.86"/>
</g>
<!-- [root] provider[&quot;registry.terraform.io/hashicorp/aws&quot;] (close)&#45;&gt;[root] data.aws_eks_cluster.alb_example -->
<g id="edge48" class="edge">
<title>[root] provider[&quot;registry.terraform.io/hashicorp/aws&quot;] (close)&#45;&gt;[root] data.aws_eks_cluster.alb_example</title>
<path fill="none" stroke="black" d="M1291.55,-374.86C1539.23,-370.79 1949.67,-359.04 2312.28,-324.2"/>
<polygon fill="black" stroke="black" points="2312.42,-327.7 2322.03,-323.26 2311.74,-320.74 2312.42,-327.7"/>
</g>
<!-- [root] provider[&quot;registry.terraform.io/hashicorp/aws&quot;] (close)&#45;&gt;[root] data.aws_eks_cluster_auth.alb_example -->
<g id="edge49" class="edge">
<title>[root] provider[&quot;registry.terraform.io/hashicorp/aws&quot;] (close)&#45;&gt;[root] data.aws_eks_cluster_auth.alb_example</title>
<path fill="none" stroke="black" d="M1292.8,-375.65C1579.32,-372.39 2088.87,-361.44 2534.89,-324.12"/>
<polygon fill="black" stroke="black" points="2534.9,-327.63 2544.57,-323.31 2534.31,-320.66 2534.9,-327.63"/>
</g>
<!-- [root] provider[&quot;registry.terraform.io/hashicorp/aws&quot;] (close)&#45;&gt;[root] data.aws_iam_openid_connect_provider.alb_example -->
<g id="edge50" class="edge">
<title>[root] provider[&quot;registry.terraform.io/hashicorp/aws&quot;] (close)&#45;&gt;[root] data.aws_iam_openid_connect_provider.alb_example</title>
<path fill="none" stroke="black" d="M1200.57,-363.04C1307.07,-351.92 1456.76,-336.28 1570.96,-324.35"/>
<polygon fill="black" stroke="black" points="1571.16,-327.85 1580.74,-323.33 1570.43,-320.88 1571.16,-327.85"/>
</g>
<!-- [root] provider[&quot;registry.terraform.io/hashicorp/aws&quot;] (close)&#45;&gt;[root] data.aws_iam_policy_document.external_dns -->
<g id="edge51" class="edge">
<title>[root] provider[&quot;registry.terraform.io/hashicorp/aws&quot;] (close)&#45;&gt;[root] data.aws_iam_policy_document.external_dns</title>
<path fill="none" stroke="black" d="M1046.98,-359.7C1037.24,-351.28 1025.36,-341.02 1014.69,-331.79"/>
<polygon fill="black" stroke="black" points="1017.07,-329.23 1007.22,-325.34 1012.5,-334.52 1017.07,-329.23"/>
</g>
<!-- [root] provider[&quot;registry.terraform.io/hashicorp/aws&quot;] (close)&#45;&gt;[root] data.aws_iam_policy_document.irsa_alb_controller_trust_policy_doc -->
<g id="edge52" class="edge">
<title>[root] provider[&quot;registry.terraform.io/hashicorp/aws&quot;] (close)&#45;&gt;[root] data.aws_iam_policy_document.irsa_alb_controller_trust_policy_doc</title>
<path fill="none" stroke="black" d="M1246.02,-366.58C1412.23,-356.69 1666.9,-340.96 1898.34,-324.19"/>
<polygon fill="black" stroke="black" points="1898.46,-327.69 1908.18,-323.47 1897.96,-320.7 1898.46,-327.69"/>
</g>
<!-- [root] provider[&quot;registry.terraform.io/hashicorp/aws&quot;] (close)&#45;&gt;[root] data.aws_iam_policy_document.irsa_external_dns_trust_policy_doc -->
<g id="edge53" class="edge">
<title>[root] provider[&quot;registry.terraform.io/hashicorp/aws&quot;] (close)&#45;&gt;[root] data.aws_iam_policy_document.irsa_external_dns_trust_policy_doc</title>
<path fill="none" stroke="black" d="M1138.42,-360.5C1181.74,-350.49 1237.32,-337.65 1283.16,-327.06"/>
<polygon fill="black" stroke="black" points="1283.86,-330.49 1292.82,-324.83 1282.29,-323.67 1283.86,-330.49"/>
</g>
<!-- [root] provider[&quot;registry.terraform.io/hashicorp/aws&quot;] (close)&#45;&gt;[root] data.aws_security_group.additional_eks_security_group -->
<g id="edge54" class="edge">
<title>[root] provider[&quot;registry.terraform.io/hashicorp/aws&quot;] (close)&#45;&gt;[root] data.aws_security_group.additional_eks_security_group</title>
<path fill="none" stroke="black" d="M892.32,-366.14C782.04,-357.46 657.22,-343.49 640,-324 599.49,-278.15 661.85,-255.84 736.67,-245.03"/>
<polygon fill="black" stroke="black" points="736.86,-248.53 746.29,-243.72 735.91,-241.6 736.86,-248.53"/>
</g>
<!-- [root] provider[&quot;registry.terraform.io/hashicorp/aws&quot;] (close)&#45;&gt;[root] data.aws_subnet.alb_example_public_1 -->
<g id="edge55" class="edge">
<title>[root] provider[&quot;registry.terraform.io/hashicorp/aws&quot;] (close)&#45;&gt;[root] data.aws_subnet.alb_example_public_1</title>
<path fill="none" stroke="black" d="M851.96,-371.9C672.62,-365.66 441.05,-352.22 407,-324 368.12,-291.77 361.78,-228.8 361.7,-191.88"/>
<polygon fill="black" stroke="black" points="365.2,-192.01 361.85,-181.96 358.2,-191.9 365.2,-192.01"/>
</g>
<!-- [root] provider[&quot;registry.terraform.io/hashicorp/aws&quot;] (close)&#45;&gt;[root] data.aws_subnet.alb_example_public_2 -->
<g id="edge56" class="edge">
<title>[root] provider[&quot;registry.terraform.io/hashicorp/aws&quot;] (close)&#45;&gt;[root] data.aws_subnet.alb_example_public_2</title>
<path fill="none" stroke="black" d="M846.48,-373.42C670.57,-368.21 448.95,-355.42 420,-324 391.3,-292.85 446.98,-223.37 456,-216 475.89,-199.75 500.32,-188.45 525.12,-180.61"/>
<polygon fill="black" stroke="black" points="526.1,-183.97 534.69,-177.78 524.11,-177.26 526.1,-183.97"/>
</g>
<!-- [root] provider[&quot;registry.terraform.io/hashicorp/aws&quot;] (close)&#45;&gt;[root] data.aws_vpc.alb_example -->
<g id="edge57" class="edge">
<title>[root] provider[&quot;registry.terraform.io/hashicorp/aws&quot;] (close)&#45;&gt;[root] data.aws_vpc.alb_example</title>
<path fill="none" stroke="black" d="M928.83,-363.29C837.34,-353.66 714.78,-339.74 607,-324 606.17,-323.88 605.33,-323.76 604.49,-323.63"/>
<polygon fill="black" stroke="black" points="605.34,-320.22 594.92,-322.16 604.27,-327.14 605.34,-320.22"/>
</g>
<!-- [root] provider[&quot;registry.terraform.io/hashicorp/helm&quot;] (close) -->
<g id="node34" class="node">
<title>[root] provider[&quot;registry.terraform.io/hashicorp/helm&quot;] (close)</title>
<ellipse fill="none" stroke="black" cx="3346" cy="-162" rx="231.26" ry="18"/>
<text text-anchor="middle" x="3346" y="-158.3" font-family="Times,serif" font-size="14.00">[root] provider[&quot;registry.terraform.io/hashicorp/helm&quot;] (close)</text>
</g>
<!-- [root] provider[&quot;registry.terraform.io/hashicorp/helm&quot;] (close)&#45;&gt;[root] helm_release.eks_alb -->
<g id="edge59" class="edge">
<title>[root] provider[&quot;registry.terraform.io/hashicorp/helm&quot;] (close)&#45;&gt;[root] helm_release.eks_alb</title>
<path fill="none" stroke="black" d="M3335.87,-143.7C3331.3,-135.9 3325.8,-126.51 3320.71,-117.83"/>
<polygon fill="black" stroke="black" points="3323.86,-116.27 3315.78,-109.41 3317.82,-119.81 3323.86,-116.27"/>
</g>
<!-- [root] provider[&quot;registry.terraform.io/hashicorp/helm&quot;] (close)&#45;&gt;[root] helm_release.external_dns -->
<g id="edge60" class="edge">
<title>[root] provider[&quot;registry.terraform.io/hashicorp/helm&quot;] (close)&#45;&gt;[root] helm_release.external_dns</title>
<path fill="none" stroke="black" d="M3295.63,-143.97C3267.28,-134.38 3231.63,-122.32 3201.51,-112.14"/>
<polygon fill="black" stroke="black" points="3202.71,-108.85 3192.11,-108.96 3200.47,-115.48 3202.71,-108.85"/>
</g>
<!-- [root] provider[&quot;registry.terraform.io/hashicorp/kubernetes&quot;] (close) -->
<g id="node35" class="node">
<title>[root] provider[&quot;registry.terraform.io/hashicorp/kubernetes&quot;] (close)</title>
<ellipse fill="none" stroke="black" cx="3051" cy="-306" rx="251.56" ry="18"/>
<text text-anchor="middle" x="3051" y="-302.3" font-family="Times,serif" font-size="14.00">[root] provider[&quot;registry.terraform.io/hashicorp/kubernetes&quot;] (close)</text>
</g>
<!-- [root] provider[&quot;registry.terraform.io/hashicorp/kubernetes&quot;] (close)&#45;&gt;[root] kubernetes_deployment_v1.nginx -->
<g id="edge61" class="edge">
<title>[root] provider[&quot;registry.terraform.io/hashicorp/kubernetes&quot;] (close)&#45;&gt;[root] kubernetes_deployment_v1.nginx</title>
<path fill="none" stroke="black" d="M2907.5,-290.79C2774.13,-277.59 2578.2,-258.19 2456.02,-246.09"/>
<polygon fill="black" stroke="black" points="2456.59,-242.63 2446.3,-245.13 2455.9,-249.6 2456.59,-242.63"/>
</g>
<!-- [root] provider[&quot;registry.terraform.io/hashicorp/kubernetes&quot;] (close)&#45;&gt;[root] kubernetes_service_account.aws_load_balancer_controller -->
<g id="edge62" class="edge">
<title>[root] provider[&quot;registry.terraform.io/hashicorp/kubernetes&quot;] (close)&#45;&gt;[root] kubernetes_service_account.aws_load_balancer_controller</title>
<path fill="none" stroke="black" d="M3049.61,-287.82C3047.25,-268.47 3040.92,-237 3024,-216 3013.99,-203.57 3000.24,-193.58 2986.3,-185.76"/>
<polygon fill="black" stroke="black" points="2988,-182.7 2977.52,-181.15 2984.75,-188.9 2988,-182.7"/>
</g>
<!-- [root] provider[&quot;registry.terraform.io/hashicorp/kubernetes&quot;] (close)&#45;&gt;[root] kubernetes_service_account.external_dns -->
<g id="edge63" class="edge">
<title>[root] provider[&quot;registry.terraform.io/hashicorp/kubernetes&quot;] (close)&#45;&gt;[root] kubernetes_service_account.external_dns</title>
<path fill="none" stroke="black" d="M2999.68,-288.01C2921.06,-261.99 2770.96,-212.31 2685.57,-184.04"/>
<polygon fill="black" stroke="black" points="2686.75,-180.75 2676.16,-180.93 2684.55,-187.39 2686.75,-180.75"/>
</g>
<!-- [root] root -->
<g id="node36" class="node">
<title>[root] root</title>
<ellipse fill="none" stroke="black" cx="3191" cy="-450" rx="47.39" ry="18"/>
<text text-anchor="middle" x="3191" y="-446.3" font-family="Times,serif" font-size="14.00">[root] root</text>
</g>
<!-- [root] root&#45;&gt;[root] provider[&quot;registry.terraform.io/hashicorp/aws&quot;] (close) -->
<g id="edge65" class="edge">
<title>[root] root&#45;&gt;[root] provider[&quot;registry.terraform.io/hashicorp/aws&quot;] (close)</title>
<path fill="none" stroke="black" d="M3143.66,-447.44C2898.53,-439.36 1766.38,-402.05 1284.79,-386.18"/>
<polygon fill="black" stroke="black" points="1285.16,-382.69 1275.05,-385.86 1284.92,-389.68 1285.16,-382.69"/>
</g>
<!-- [root] root&#45;&gt;[root] provider[&quot;registry.terraform.io/hashicorp/helm&quot;] (close) -->
<g id="edge66" class="edge">
<title>[root] root&#45;&gt;[root] provider[&quot;registry.terraform.io/hashicorp/helm&quot;] (close)</title>
<path fill="none" stroke="black" d="M3211.75,-433.76C3239.21,-412.42 3287.05,-370.94 3312,-324 3334.69,-281.31 3342.24,-224.71 3344.75,-191.24"/>
<polygon fill="black" stroke="black" points="3348.23,-191.74 3345.37,-181.54 3341.24,-191.3 3348.23,-191.74"/>
</g>
<!-- [root] root&#45;&gt;[root] provider[&quot;registry.terraform.io/hashicorp/kubernetes&quot;] (close) -->
<g id="edge67" class="edge">
<title>[root] root&#45;&gt;[root] provider[&quot;registry.terraform.io/hashicorp/kubernetes&quot;] (close)</title>
<path fill="none" stroke="black" d="M3174.94,-432.71C3150.75,-408.18 3104.77,-361.53 3076.12,-332.48"/>
<polygon fill="black" stroke="black" points="3078.76,-330.17 3069.24,-325.5 3073.77,-335.08 3078.76,-330.17"/>
</g>
<!-- [root] output.zone_name_servers (expand) -->
<g id="node37" class="node">
<title>[root] output.zone_name_servers (expand)</title>
<ellipse fill="none" stroke="black" cx="3520" cy="-378" rx="161.37" ry="18"/>
<text text-anchor="middle" x="3520" y="-374.3" font-family="Times,serif" font-size="14.00">[root] output.zone_name_servers (expand)</text>
</g>
<!-- [root] root&#45;&gt;[root] output.zone_name_servers (expand) -->
<g id="edge64" class="edge">
<title>[root] root&#45;&gt;[root] output.zone_name_servers (expand)</title>
<path fill="none" stroke="black" d="M3231.67,-440.35C3282.46,-429.54 3370.62,-410.78 3436.13,-396.84"/>
<polygon fill="black" stroke="black" points="3436.72,-400.3 3445.78,-394.79 3435.27,-393.45 3436.72,-400.3"/>
</g>
</g>
</svg>
