<?xml version="1.0" encoding="UTF-8" standalone="no"?>
<!DOCTYPE svg PUBLIC "-//W3C//DTD SVG 1.1//EN"
 "http://www.w3.org/Graphics/SVG/1.1/DTD/svg11.dtd">
<!-- Generated by graphviz version 7.0.6 (20230106.0513)
 -->
<!-- Pages: 1 -->
<svg width="3170pt" height="332pt"
 viewBox="0.00 0.00 3170.00 332.00" xmlns="http://www.w3.org/2000/svg" xmlns:xlink="http://www.w3.org/1999/xlink">
<g id="graph0" class="graph" transform="scale(1 1) rotate(0) translate(4 328)">
<polygon fill="white" stroke="none" points="-4,4 -4,-328 3166,-328 3166,4 -4,4"/>
<!-- [root] data.aws_acm_certificate.alb_example -->
<g id="node1" class="node">
<title>[root] data.aws_acm_certificate.alb_example</title>
<polygon fill="none" stroke="black" points="228,-180 0,-180 0,-144 228,-144 228,-180"/>
<text text-anchor="middle" x="114" y="-158.3" font-family="Times,serif" font-size="14.00">data.aws_acm_certificate.alb_example</text>
</g>
<!-- [root] provider[&quot;registry.terraform.io/hashicorp/aws&quot;] -->
<g id="node12" class="node">
<title>[root] provider[&quot;registry.terraform.io/hashicorp/aws&quot;]</title>
<polygon fill="none" stroke="black" points="1531,-108 1278.46,-90 1531,-72 1783.54,-90 1531,-108"/>
<text text-anchor="middle" x="1531" y="-86.3" font-family="Times,serif" font-size="14.00">provider[&quot;registry.terraform.io/hashicorp/aws&quot;]</text>
</g>
<!-- [root] data.aws_acm_certificate.alb_example&#45;&gt;[root] provider[&quot;registry.terraform.io/hashicorp/aws&quot;] -->
<g id="edge1" class="edge">
<title>[root] data.aws_acm_certificate.alb_example&#45;&gt;[root] provider[&quot;registry.terraform.io/hashicorp/aws&quot;]</title>
<path fill="none" stroke="black" d="M228.21,-144.83C231.17,-144.54 234.1,-144.26 237,-144 611.86,-110.5 1049.73,-98.15 1307.95,-93.61"/>
<polygon fill="black" stroke="black" points="1307.89,-97.11 1317.83,-93.44 1307.77,-90.11 1307.89,-97.11"/>
</g>
<!-- [root] data.aws_eks_cluster.alb_example -->
<g id="node2" class="node">
<title>[root] data.aws_eks_cluster.alb_example</title>
<polygon fill="none" stroke="black" points="450,-180 246,-180 246,-144 450,-144 450,-180"/>
<text text-anchor="middle" x="348" y="-158.3" font-family="Times,serif" font-size="14.00">data.aws_eks_cluster.alb_example</text>
</g>
<!-- [root] data.aws_eks_cluster.alb_example&#45;&gt;[root] provider[&quot;registry.terraform.io/hashicorp/aws&quot;] -->
<g id="edge2" class="edge">
<title>[root] data.aws_eks_cluster.alb_example&#45;&gt;[root] provider[&quot;registry.terraform.io/hashicorp/aws&quot;]</title>
<path fill="none" stroke="black" d="M450.46,-144.92C453.34,-144.59 456.19,-144.28 459,-144 759.3,-113.66 1108.75,-100.5 1324.93,-94.92"/>
<polygon fill="black" stroke="black" points="1324.98,-98.42 1334.89,-94.67 1324.8,-91.42 1324.98,-98.42"/>
</g>
<!-- [root] data.aws_eks_cluster_auth.alb_example -->
<g id="node3" class="node">
<title>[root] data.aws_eks_cluster_auth.alb_example</title>
<polygon fill="none" stroke="black" points="703.5,-180 468.5,-180 468.5,-144 703.5,-144 703.5,-180"/>
<text text-anchor="middle" x="586" y="-158.3" font-family="Times,serif" font-size="14.00">data.aws_eks_cluster_auth.alb_example</text>
</g>
<!-- [root] data.aws_eks_cluster_auth.alb_example&#45;&gt;[root] provider[&quot;registry.terraform.io/hashicorp/aws&quot;] -->
<g id="edge3" class="edge">
<title>[root] data.aws_eks_cluster_auth.alb_example&#45;&gt;[root] provider[&quot;registry.terraform.io/hashicorp/aws&quot;]</title>
<path fill="none" stroke="black" d="M703.68,-144.86C706.48,-144.56 709.25,-144.27 712,-144 938.95,-121.37 1202.3,-106.32 1367.79,-98.22"/>
<polygon fill="black" stroke="black" points="1367.71,-101.73 1377.53,-97.74 1367.37,-94.73 1367.71,-101.73"/>
</g>
<!-- [root] data.aws_iam_openid_connect_provider.alb_example -->
<g id="node4" class="node">
<title>[root] data.aws_iam_openid_connect_provider.alb_example</title>
<polygon fill="none" stroke="black" points="1030.5,-180 721.5,-180 721.5,-144 1030.5,-144 1030.5,-180"/>
<text text-anchor="middle" x="876" y="-158.3" font-family="Times,serif" font-size="14.00">data.aws_iam_openid_connect_provider.alb_example</text>
</g>
<!-- [root] data.aws_iam_openid_connect_provider.alb_example&#45;&gt;[root] provider[&quot;registry.terraform.io/hashicorp/aws&quot;] -->
<g id="edge4" class="edge">
<title>[root] data.aws_iam_openid_connect_provider.alb_example&#45;&gt;[root] provider[&quot;registry.terraform.io/hashicorp/aws&quot;]</title>
<path fill="none" stroke="black" d="M1030.81,-144.46C1151.19,-131.59 1315.16,-114.07 1422.03,-102.65"/>
<polygon fill="black" stroke="black" points="1422.08,-106.16 1431.65,-101.62 1421.34,-99.2 1422.08,-106.16"/>
</g>
<!-- [root] data.aws_iam_policy_document.external_dns -->
<g id="node5" class="node">
<title>[root] data.aws_iam_policy_document.external_dns</title>
<polygon fill="none" stroke="black" points="1315,-180 1049,-180 1049,-144 1315,-144 1315,-180"/>
<text text-anchor="middle" x="1182" y="-158.3" font-family="Times,serif" font-size="14.00">data.aws_iam_policy_document.external_dns</text>
</g>
<!-- [root] data.aws_iam_policy_document.external_dns&#45;&gt;[root] provider[&quot;registry.terraform.io/hashicorp/aws&quot;] -->
<g id="edge5" class="edge">
<title>[root] data.aws_iam_policy_document.external_dns&#45;&gt;[root] provider[&quot;registry.terraform.io/hashicorp/aws&quot;]</title>
<path fill="none" stroke="black" d="M1269.17,-143.52C1326.59,-132 1401.01,-117.07 1455.82,-106.08"/>
<polygon fill="black" stroke="black" points="1456.26,-109.56 1465.38,-104.16 1454.88,-102.7 1456.26,-109.56"/>
</g>
<!-- [root] data.aws_iam_policy_document.irsa_alb_controller_trust_policy_doc -->
<g id="node6" class="node">
<title>[root] data.aws_iam_policy_document.irsa_alb_controller_trust_policy_doc</title>
<polygon fill="none" stroke="black" points="1729,-180 1333,-180 1333,-144 1729,-144 1729,-180"/>
<text text-anchor="middle" x="1531" y="-158.3" font-family="Times,serif" font-size="14.00">data.aws_iam_policy_document.irsa_alb_controller_trust_policy_doc</text>
</g>
<!-- [root] data.aws_iam_policy_document.irsa_alb_controller_trust_policy_doc&#45;&gt;[root] provider[&quot;registry.terraform.io/hashicorp/aws&quot;] -->
<g id="edge6" class="edge">
<title>[root] data.aws_iam_policy_document.irsa_alb_controller_trust_policy_doc&#45;&gt;[root] provider[&quot;registry.terraform.io/hashicorp/aws&quot;]</title>
<path fill="none" stroke="black" d="M1531,-143.7C1531,-136.41 1531,-127.73 1531,-119.54"/>
<polygon fill="black" stroke="black" points="1534.5,-119.62 1531,-109.62 1527.5,-119.62 1534.5,-119.62"/>
</g>
<!-- [root] data.aws_iam_policy_document.irsa_external_dns_trust_policy_doc -->
<g id="node7" class="node">
<title>[root] data.aws_iam_policy_document.irsa_external_dns_trust_policy_doc</title>
<polygon fill="none" stroke="black" points="2136.5,-180 1747.5,-180 1747.5,-144 2136.5,-144 2136.5,-180"/>
<text text-anchor="middle" x="1942" y="-158.3" font-family="Times,serif" font-size="14.00">data.aws_iam_policy_document.irsa_external_dns_trust_policy_doc</text>
</g>
<!-- [root] data.aws_iam_policy_document.irsa_external_dns_trust_policy_doc&#45;&gt;[root] provider[&quot;registry.terraform.io/hashicorp/aws&quot;] -->
<g id="edge7" class="edge">
<title>[root] data.aws_iam_policy_document.irsa_external_dns_trust_policy_doc&#45;&gt;[root] provider[&quot;registry.terraform.io/hashicorp/aws&quot;]</title>
<path fill="none" stroke="black" d="M1839.35,-143.52C1769.9,-131.69 1679.33,-116.26 1614.34,-105.19"/>
<polygon fill="black" stroke="black" points="1615.27,-101.8 1604.82,-103.57 1614.09,-108.7 1615.27,-101.8"/>
</g>
<!-- [root] data.aws_security_group.additional_eks_security_group -->
<g id="node8" class="node">
<title>[root] data.aws_security_group.additional_eks_security_group</title>
<polygon fill="none" stroke="black" points="2477,-180 2155,-180 2155,-144 2477,-144 2477,-180"/>
<text text-anchor="middle" x="2316" y="-158.3" font-family="Times,serif" font-size="14.00">data.aws_security_group.additional_eks_security_group</text>
</g>
<!-- [root] data.aws_security_group.additional_eks_security_group&#45;&gt;[root] provider[&quot;registry.terraform.io/hashicorp/aws&quot;] -->
<g id="edge8" class="edge">
<title>[root] data.aws_security_group.additional_eks_security_group&#45;&gt;[root] provider[&quot;registry.terraform.io/hashicorp/aws&quot;]</title>
<path fill="none" stroke="black" d="M2154.94,-144.84C2151.94,-144.55 2148.95,-144.27 2146,-144 1976.56,-128.23 1780.7,-111.63 1656.39,-101.3"/>
<polygon fill="black" stroke="black" points="1656.72,-97.82 1646.46,-100.48 1656.14,-104.79 1656.72,-97.82"/>
</g>
<!-- [root] data.aws_subnet.alb_example_public_1 -->
<g id="node9" class="node">
<title>[root] data.aws_subnet.alb_example_public_1</title>
<polygon fill="none" stroke="black" points="2728.5,-180 2495.5,-180 2495.5,-144 2728.5,-144 2728.5,-180"/>
<text text-anchor="middle" x="2612" y="-158.3" font-family="Times,serif" font-size="14.00">data.aws_subnet.alb_example_public_1</text>
</g>
<!-- [root] data.aws_subnet.alb_example_public_1&#45;&gt;[root] provider[&quot;registry.terraform.io/hashicorp/aws&quot;] -->
<g id="edge9" class="edge">
<title>[root] data.aws_subnet.alb_example_public_1&#45;&gt;[root] provider[&quot;registry.terraform.io/hashicorp/aws&quot;]</title>
<path fill="none" stroke="black" d="M2495.34,-144.93C2492.19,-144.6 2489.08,-144.29 2486,-144 2217.15,-118.44 1904.46,-103.97 1712.14,-96.81"/>
<polygon fill="black" stroke="black" points="1712.43,-93.32 1702.31,-96.45 1712.17,-100.31 1712.43,-93.32"/>
</g>
<!-- [root] data.aws_subnet.alb_example_public_2 -->
<g id="node10" class="node">
<title>[root] data.aws_subnet.alb_example_public_2</title>
<polygon fill="none" stroke="black" points="2979.5,-180 2746.5,-180 2746.5,-144 2979.5,-144 2979.5,-180"/>
<text text-anchor="middle" x="2863" y="-158.3" font-family="Times,serif" font-size="14.00">data.aws_subnet.alb_example_public_2</text>
</g>
<!-- [root] data.aws_subnet.alb_example_public_2&#45;&gt;[root] provider[&quot;registry.terraform.io/hashicorp/aws&quot;] -->
<g id="edge10" class="edge">
<title>[root] data.aws_subnet.alb_example_public_2&#45;&gt;[root] provider[&quot;registry.terraform.io/hashicorp/aws&quot;]</title>
<path fill="none" stroke="black" d="M2746.27,-144.78C2743.49,-144.51 2740.73,-144.24 2738,-144 2390.07,-112.77 1984,-99.74 1742.69,-94.45"/>
<polygon fill="black" stroke="black" points="1742.91,-90.96 1732.84,-94.24 1742.76,-97.95 1742.91,-90.96"/>
</g>
<!-- [root] data.aws_vpc.alb_example -->
<g id="node11" class="node">
<title>[root] data.aws_vpc.alb_example</title>
<polygon fill="none" stroke="black" points="3162,-180 2998,-180 2998,-144 3162,-144 3162,-180"/>
<text text-anchor="middle" x="3080" y="-158.3" font-family="Times,serif" font-size="14.00">data.aws_vpc.alb_example</text>
</g>
<!-- [root] data.aws_vpc.alb_example&#45;&gt;[root] provider[&quot;registry.terraform.io/hashicorp/aws&quot;] -->
<g id="edge11" class="edge">
<title>[root] data.aws_vpc.alb_example&#45;&gt;[root] provider[&quot;registry.terraform.io/hashicorp/aws&quot;]</title>
<path fill="none" stroke="black" d="M2997.74,-145.07C2994.8,-144.68 2991.88,-144.32 2989,-144 2753.17,-117.83 2081.59,-101.58 1738.4,-94.74"/>
<polygon fill="black" stroke="black" points="1738.67,-91.25 1728.6,-94.55 1738.53,-98.25 1738.67,-91.25"/>
</g>
<!-- [root] local.aws_region (expand) -->
<g id="node14" class="node">
<title>[root] local.aws_region (expand)</title>
<ellipse fill="none" stroke="black" cx="1531" cy="-18" rx="126.98" ry="18"/>
<text text-anchor="middle" x="1531" y="-14.3" font-family="Times,serif" font-size="14.00">[root] local.aws_region (expand)</text>
</g>
<!-- [root] provider[&quot;registry.terraform.io/hashicorp/aws&quot;]&#45;&gt;[root] local.aws_region (expand) -->
<g id="edge23" class="edge">
<title>[root] provider[&quot;registry.terraform.io/hashicorp/aws&quot;]&#45;&gt;[root] local.aws_region (expand)</title>
<path fill="none" stroke="black" d="M1531,-71.7C1531,-64.41 1531,-55.73 1531,-47.54"/>
<polygon fill="black" stroke="black" points="1534.5,-47.62 1531,-37.62 1527.5,-47.62 1534.5,-47.62"/>
</g>
<!-- [root] provider[&quot;registry.terraform.io/hashicorp/aws&quot;] (close) -->
<g id="node13" class="node">
<title>[root] provider[&quot;registry.terraform.io/hashicorp/aws&quot;] (close)</title>
<ellipse fill="none" stroke="black" cx="1531" cy="-234" rx="227.46" ry="18"/>
<text text-anchor="middle" x="1531" y="-230.3" font-family="Times,serif" font-size="14.00">[root] provider[&quot;registry.terraform.io/hashicorp/aws&quot;] (close)</text>
</g>
<!-- [root] provider[&quot;registry.terraform.io/hashicorp/aws&quot;] (close)&#45;&gt;[root] data.aws_acm_certificate.alb_example -->
<g id="edge12" class="edge">
<title>[root] provider[&quot;registry.terraform.io/hashicorp/aws&quot;] (close)&#45;&gt;[root] data.aws_acm_certificate.alb_example</title>
<path fill="none" stroke="black" d="M1307.61,-230.38C1051.86,-225.89 620.22,-213.73 239.46,-180.17"/>
<polygon fill="black" stroke="black" points="239.98,-176.7 229.71,-179.3 239.37,-183.67 239.98,-176.7"/>
</g>
<!-- [root] provider[&quot;registry.terraform.io/hashicorp/aws&quot;] (close)&#45;&gt;[root] data.aws_eks_cluster.alb_example -->
<g id="edge13" class="edge">
<title>[root] provider[&quot;registry.terraform.io/hashicorp/aws&quot;] (close)&#45;&gt;[root] data.aws_eks_cluster.alb_example</title>
<path fill="none" stroke="black" d="M1312.62,-228.76C1098.3,-223.07 761.99,-210.09 461.58,-180.2"/>
<polygon fill="black" stroke="black" points="462.27,-176.75 451.97,-179.24 461.57,-183.72 462.27,-176.75"/>
</g>
<!-- [root] provider[&quot;registry.terraform.io/hashicorp/aws&quot;] (close)&#45;&gt;[root] data.aws_eks_cluster_auth.alb_example -->
<g id="edge14" class="edge">
<title>[root] provider[&quot;registry.terraform.io/hashicorp/aws&quot;] (close)&#45;&gt;[root] data.aws_eks_cluster_auth.alb_example</title>
<path fill="none" stroke="black" d="M1337.49,-224.27C1174.18,-216.02 933.94,-201.79 715.07,-180.27"/>
<polygon fill="black" stroke="black" points="715.48,-176.79 705.18,-179.29 714.79,-183.76 715.48,-176.79"/>
</g>
<!-- [root] provider[&quot;registry.terraform.io/hashicorp/aws&quot;] (close)&#45;&gt;[root] data.aws_iam_openid_connect_provider.alb_example -->
<g id="edge15" class="edge">
<title>[root] provider[&quot;registry.terraform.io/hashicorp/aws&quot;] (close)&#45;&gt;[root] data.aws_iam_openid_connect_provider.alb_example</title>
<path fill="none" stroke="black" d="M1399.24,-218.92C1296.4,-207.93 1152.88,-192.59 1042.15,-180.76"/>
<polygon fill="black" stroke="black" points="1042.69,-177.29 1032.37,-179.71 1041.94,-184.25 1042.69,-177.29"/>
</g>
<!-- [root] provider[&quot;registry.terraform.io/hashicorp/aws&quot;] (close)&#45;&gt;[root] data.aws_iam_policy_document.external_dns -->
<g id="edge16" class="edge">
<title>[root] provider[&quot;registry.terraform.io/hashicorp/aws&quot;] (close)&#45;&gt;[root] data.aws_iam_policy_document.external_dns</title>
<path fill="none" stroke="black" d="M1450.06,-216.76C1399.49,-206.62 1334.03,-193.49 1280.46,-182.75"/>
<polygon fill="black" stroke="black" points="1281.2,-179.33 1270.71,-180.79 1279.82,-186.19 1281.2,-179.33"/>
</g>
<!-- [root] provider[&quot;registry.terraform.io/hashicorp/aws&quot;] (close)&#45;&gt;[root] data.aws_iam_policy_document.irsa_alb_controller_trust_policy_doc -->
<g id="edge17" class="edge">
<title>[root] provider[&quot;registry.terraform.io/hashicorp/aws&quot;] (close)&#45;&gt;[root] data.aws_iam_policy_document.irsa_alb_controller_trust_policy_doc</title>
<path fill="none" stroke="black" d="M1531,-215.7C1531,-208.41 1531,-199.73 1531,-191.54"/>
<polygon fill="black" stroke="black" points="1534.5,-191.62 1531,-181.62 1527.5,-191.62 1534.5,-191.62"/>
</g>
<!-- [root] provider[&quot;registry.terraform.io/hashicorp/aws&quot;] (close)&#45;&gt;[root] data.aws_iam_policy_document.irsa_external_dns_trust_policy_doc -->
<g id="edge18" class="edge">
<title>[root] provider[&quot;registry.terraform.io/hashicorp/aws&quot;] (close)&#45;&gt;[root] data.aws_iam_policy_document.irsa_external_dns_trust_policy_doc</title>
<path fill="none" stroke="black" d="M1624.01,-217.16C1684.67,-206.83 1764.24,-193.28 1828.6,-182.31"/>
<polygon fill="black" stroke="black" points="1828.85,-185.82 1838.12,-180.69 1827.68,-178.92 1828.85,-185.82"/>
</g>
<!-- [root] provider[&quot;registry.terraform.io/hashicorp/aws&quot;] (close)&#45;&gt;[root] data.aws_security_group.additional_eks_security_group -->
<g id="edge19" class="edge">
<title>[root] provider[&quot;registry.terraform.io/hashicorp/aws&quot;] (close)&#45;&gt;[root] data.aws_security_group.additional_eks_security_group</title>
<path fill="none" stroke="black" d="M1684.59,-220.35C1806.24,-210.19 1980.83,-195.31 2143.73,-180.2"/>
<polygon fill="black" stroke="black" points="2143.8,-183.71 2153.43,-179.3 2143.15,-176.74 2143.8,-183.71"/>
</g>
<!-- [root] provider[&quot;registry.terraform.io/hashicorp/aws&quot;] (close)&#45;&gt;[root] data.aws_subnet.alb_example_public_1 -->
<g id="edge20" class="edge">
<title>[root] provider[&quot;registry.terraform.io/hashicorp/aws&quot;] (close)&#45;&gt;[root] data.aws_subnet.alb_example_public_1</title>
<path fill="none" stroke="black" d="M1692.24,-220.97C1717.59,-219.21 1743.5,-217.49 1768,-216 2083.18,-196.8 2165.91,-209.09 2483.6,-180.17"/>
<polygon fill="black" stroke="black" points="2483.86,-183.66 2493.49,-179.26 2483.22,-176.69 2483.86,-183.66"/>
</g>
<!-- [root] provider[&quot;registry.terraform.io/hashicorp/aws&quot;] (close)&#45;&gt;[root] data.aws_subnet.alb_example_public_2 -->
<g id="edge21" class="edge">
<title>[root] provider[&quot;registry.terraform.io/hashicorp/aws&quot;] (close)&#45;&gt;[root] data.aws_subnet.alb_example_public_2</title>
<path fill="none" stroke="black" d="M1690.63,-220.79C1716.48,-219.03 1742.98,-217.36 1768,-216 2195.09,-192.76 2306.3,-216.7 2735.11,-180.2"/>
<polygon fill="black" stroke="black" points="2735.1,-183.71 2744.76,-179.37 2734.5,-176.74 2735.1,-183.71"/>
</g>
<!-- [root] provider[&quot;registry.terraform.io/hashicorp/aws&quot;] (close)&#45;&gt;[root] data.aws_vpc.alb_example -->
<g id="edge22" class="edge">
<title>[root] provider[&quot;registry.terraform.io/hashicorp/aws&quot;] (close)&#45;&gt;[root] data.aws_vpc.alb_example</title>
<path fill="none" stroke="black" d="M1689.34,-220.71C1715.6,-218.94 1742.56,-217.29 1768,-216 2306.5,-188.76 2447.29,-237.35 2986.55,-180.15"/>
<polygon fill="black" stroke="black" points="2986.67,-183.66 2996.24,-179.12 2985.92,-176.7 2986.67,-183.66"/>
</g>
<!-- [root] root -->
<g id="node15" class="node">
<title>[root] root</title>
<ellipse fill="none" stroke="black" cx="1734" cy="-306" rx="47.39" ry="18"/>
<text text-anchor="middle" x="1734" y="-302.3" font-family="Times,serif" font-size="14.00">[root] root</text>
</g>
<!-- [root] root&#45;&gt;[root] provider[&quot;registry.terraform.io/hashicorp/aws&quot;] (close) -->
<g id="edge25" class="edge">
<title>[root] root&#45;&gt;[root] provider[&quot;registry.terraform.io/hashicorp/aws&quot;] (close)</title>
<path fill="none" stroke="black" d="M1700.02,-293.28C1670.36,-283.05 1626.61,-267.97 1591.06,-255.71"/>
<polygon fill="black" stroke="black" points="1592.34,-252.45 1581.74,-252.5 1590.06,-259.07 1592.34,-252.45"/>
</g>
<!-- [root] output.zone_name_servers (expand) -->
<g id="node16" class="node">
<title>[root] output.zone_name_servers (expand)</title>
<ellipse fill="none" stroke="black" cx="1938" cy="-234" rx="161.37" ry="18"/>
<text text-anchor="middle" x="1938" y="-230.3" font-family="Times,serif" font-size="14.00">[root] output.zone_name_servers (expand)</text>
</g>
<!-- [root] root&#45;&gt;[root] output.zone_name_servers (expand) -->
<g id="edge24" class="edge">
<title>[root] root&#45;&gt;[root] output.zone_name_servers (expand)</title>
<path fill="none" stroke="black" d="M1768.15,-293.28C1798.26,-282.95 1842.83,-267.66 1878.75,-255.33"/>
<polygon fill="black" stroke="black" points="1879.84,-258.66 1888.17,-252.1 1877.57,-252.04 1879.84,-258.66"/>
</g>
</g>
</svg>
